<svg width="87" height="24" viewBox="0 0 87 24" fill="none" xmlns="http://www.w3.org/2000/svg">
<path d="M2 10V13" stroke="white" stroke-width="2" stroke-linecap="round" stroke-linejoin="round"/>
<path d="M6 6V17" stroke="white" stroke-width="2" stroke-linecap="round" stroke-linejoin="round"/>
<path d="M10 3V21" stroke="white" stroke-width="2" stroke-linecap="round" stroke-linejoin="round"/>
<path d="M14 8V15" stroke="white" stroke-width="2" stroke-linecap="round" stroke-linejoin="round"/>
<path d="M18 5V18" stroke="white" stroke-width="2" stroke-linecap="round" stroke-linejoin="round"/>
<path d="M22 10V13" stroke="white" stroke-width="2" stroke-linecap="round" stroke-linejoin="round"/>
<path d="M35.0068 12.7617H30.7959V17H29.1416V7.04688H35.6084V8.40723H30.7959V11.4082H35.0068V12.7617ZM42.1914 17C42.1413 16.9089 42.1003 16.7995 42.0684 16.6719C42.041 16.5397 42.016 16.403 41.9932 16.2617C41.8792 16.3802 41.7493 16.4941 41.6035 16.6035C41.4622 16.7083 41.3027 16.7995 41.125 16.877C40.9473 16.959 40.7559 17.0228 40.5508 17.0684C40.3457 17.1139 40.1247 17.1367 39.8877 17.1367C39.5049 17.1367 39.154 17.082 38.835 16.9727C38.5205 16.8587 38.2516 16.7038 38.0283 16.5078C37.8005 16.3164 37.6227 16.0863 37.4951 15.8174C37.3721 15.5439 37.3105 15.25 37.3105 14.9355C37.3105 14.5299 37.3903 14.1722 37.5498 13.8623C37.7139 13.5479 37.9508 13.2881 38.2607 13.083C38.5479 12.8916 38.901 12.7458 39.3203 12.6455C39.7441 12.5452 40.2227 12.4951 40.7559 12.4951H41.9453V11.9961C41.9453 11.8047 41.9111 11.6315 41.8428 11.4766C41.779 11.3216 41.6855 11.1872 41.5625 11.0732C41.4303 10.9593 41.2686 10.8727 41.0771 10.8135C40.8903 10.7497 40.6738 10.7178 40.4277 10.7178C40.2044 10.7178 40.0085 10.7451 39.8398 10.7998C39.6758 10.8545 39.5391 10.9297 39.4297 11.0254C39.3203 11.112 39.2383 11.2191 39.1836 11.3467C39.1335 11.4697 39.1084 11.6019 39.1084 11.7432H37.4678C37.4723 11.4469 37.543 11.1621 37.6797 10.8887C37.8164 10.6152 38.0169 10.3737 38.2812 10.1641C38.5365 9.94987 38.8509 9.78125 39.2246 9.6582C39.6029 9.5306 40.0335 9.4668 40.5166 9.4668C40.9495 9.4668 41.3529 9.52148 41.7266 9.63086C42.1048 9.73568 42.4307 9.8929 42.7041 10.1025C42.9775 10.3122 43.1917 10.5788 43.3467 10.9023C43.5016 11.2214 43.5791 11.5905 43.5791 12.0098V15.2979C43.5791 15.6305 43.6019 15.9313 43.6475 16.2002C43.6976 16.4645 43.7682 16.6924 43.8594 16.8838V17H42.1914ZM40.2021 15.8242C40.4163 15.8242 40.6146 15.7969 40.7969 15.7422C40.9837 15.6875 41.1523 15.6169 41.3027 15.5303C41.4531 15.4437 41.583 15.3457 41.6924 15.2363C41.8018 15.127 41.8861 15.013 41.9453 14.8945V13.5273H40.8926C40.5371 13.5273 40.2295 13.5615 39.9697 13.6299C39.71 13.6937 39.5026 13.7871 39.3477 13.9102C39.2109 14.015 39.1084 14.1403 39.04 14.2861C38.9762 14.432 38.9443 14.596 38.9443 14.7783C38.9443 14.9287 38.9717 15.07 39.0264 15.2021C39.0811 15.3298 39.1608 15.4391 39.2656 15.5303C39.3704 15.6214 39.5003 15.6943 39.6553 15.749C39.8102 15.7992 39.9925 15.8242 40.2021 15.8242ZM46.1904 6.5H50.1758V15.6465H52.418V17H46.1904V15.6465H48.5283V7.86035H46.1904V6.5ZM59.0078 17C58.9577 16.9089 58.9167 16.7995 58.8848 16.6719C58.8574 16.5397 58.8324 16.403 58.8096 16.2617C58.6956 16.3802 58.5658 16.4941 58.4199 16.6035C58.2786 16.7083 58.1191 16.7995 57.9414 16.877C57.7637 16.959 57.5723 17.0228 57.3672 17.0684C57.1621 17.1139 56.9411 17.1367 56.7041 17.1367C56.3213 17.1367 55.9704 17.082 55.6514 16.9727C55.3369 16.8587 55.068 16.7038 54.8447 16.5078C54.6169 16.3164 54.4391 16.0863 54.3115 15.8174C54.1885 15.5439 54.127 15.25 54.127 14.9355C54.127 14.5299 54.2067 14.1722 54.3662 13.8623C54.5303 13.5479 54.7673 13.2881 55.0771 13.083C55.3643 12.8916 55.7174 12.7458 56.1367 12.6455C56.5605 12.5452 57.0391 12.4951 57.5723 12.4951H58.7617V11.9961C58.7617 11.8047 58.7275 11.6315 58.6592 11.4766C58.5954 11.3216 58.502 11.1872 58.3789 11.0732C58.2467 10.9593 58.085 10.8727 57.8936 10.8135C57.7067 10.7497 57.4902 10.7178 57.2441 10.7178C57.0208 10.7178 56.8249 10.7451 56.6562 10.7998C56.4922 10.8545 56.3555 10.9297 56.2461 11.0254C56.1367 11.112 56.0547 11.2191 56 11.3467C55.9499 11.4697 55.9248 11.6019 55.9248 11.7432H54.2842C54.2887 11.4469 54.3594 11.1621 54.4961 10.8887C54.6328 10.6152 54.8333 10.3737 55.0977 10.1641C55.3529 9.94987 55.6673 9.78125 56.041 9.6582C56.4193 9.5306 56.8499 9.4668 57.333 9.4668C57.766 9.4668 58.1693 9.52148 58.543 9.63086C58.9212 9.73568 59.2471 9.8929 59.5205 10.1025C59.7939 10.3122 60.0081 10.5788 60.1631 10.9023C60.318 11.2214 60.3955 11.5905 60.3955 12.0098V15.2979C60.3955 15.6305 60.4183 15.9313 60.4639 16.2002C60.514 16.4645 60.5846 16.6924 60.6758 16.8838V17H59.0078ZM57.0186 15.8242C57.2327 15.8242 57.431 15.7969 57.6133 15.7422C57.8001 15.6875 57.9688 15.6169 58.1191 15.5303C58.2695 15.4437 58.3994 15.3457 58.5088 15.2363C58.6182 15.127 58.7025 15.013 58.7617 14.8945V13.5273H57.709C57.3535 13.5273 57.0459 13.5615 56.7861 13.6299C56.5264 13.6937 56.319 13.7871 56.1641 13.9102C56.0273 14.015 55.9248 14.1403 55.8564 14.2861C55.7926 14.432 55.7607 14.596 55.7607 14.7783C55.7607 14.9287 55.7881 15.07 55.8428 15.2021C55.8975 15.3298 55.9772 15.4391 56.082 15.5303C56.1868 15.6214 56.3167 15.6943 56.4717 15.749C56.6266 15.7992 56.8089 15.8242 57.0186 15.8242ZM64.7295 16.0156C64.7295 15.7012 64.8298 15.4323 65.0303 15.209C65.2354 14.9857 65.5293 14.874 65.9121 14.874C66.2858 14.874 66.5775 14.9857 66.7871 15.209C66.9967 15.4277 67.1016 15.6966 67.1016 16.0156C67.1016 16.3346 66.9945 16.6012 66.7803 16.8154C66.5706 17.0296 66.2812 17.1367 65.9121 17.1367C65.5384 17.1367 65.2467 17.0296 65.0371 16.8154C64.832 16.5967 64.7295 16.3301 64.7295 16.0156ZM75.8242 17C75.7741 16.9089 75.7331 16.7995 75.7012 16.6719C75.6738 16.5397 75.6488 16.403 75.626 16.2617C75.512 16.3802 75.3822 16.4941 75.2363 16.6035C75.0951 16.7083 74.9355 16.7995 74.7578 16.877C74.5801 16.959 74.3887 17.0228 74.1836 17.0684C73.9785 17.1139 73.7575 17.1367 73.5205 17.1367C73.1377 17.1367 72.7868 17.082 72.4678 16.9727C72.1533 16.8587 71.8844 16.7038 71.6611 16.5078C71.4333 16.3164 71.2555 16.0863 71.1279 15.8174C71.0049 15.5439 70.9434 15.25 70.9434 14.9355C70.9434 14.5299 71.0231 14.1722 71.1826 13.8623C71.3467 13.5479 71.5837 13.2881 71.8936 13.083C72.1807 12.8916 72.5339 12.7458 72.9531 12.6455C73.377 12.5452 73.8555 12.4951 74.3887 12.4951H75.5781V11.9961C75.5781 11.8047 75.5439 11.6315 75.4756 11.4766C75.4118 11.3216 75.3184 11.1872 75.1953 11.0732C75.0632 10.9593 74.9014 10.8727 74.71 10.8135C74.5231 10.7497 74.3066 10.7178 74.0605 10.7178C73.8372 10.7178 73.6413 10.7451 73.4727 10.7998C73.3086 10.8545 73.1719 10.9297 73.0625 11.0254C72.9531 11.112 72.8711 11.2191 72.8164 11.3467C72.7663 11.4697 72.7412 11.6019 72.7412 11.7432H71.1006C71.1051 11.4469 71.1758 11.1621 71.3125 10.8887C71.4492 10.6152 71.6497 10.3737 71.9141 10.1641C72.1693 9.94987 72.4837 9.78125 72.8574 9.6582C73.2357 9.5306 73.6663 9.4668 74.1494 9.4668C74.5824 9.4668 74.9857 9.52148 75.3594 9.63086C75.7376 9.73568 76.0635 9.8929 76.3369 10.1025C76.6104 10.3122 76.8245 10.5788 76.9795 10.9023C77.1344 11.2214 77.2119 11.5905 77.2119 12.0098V15.2979C77.2119 15.6305 77.2347 15.9313 77.2803 16.2002C77.3304 16.4645 77.401 16.6924 77.4922 16.8838V17H75.8242ZM73.835 15.8242C74.0492 15.8242 74.2474 15.7969 74.4297 15.7422C74.6165 15.6875 74.7852 15.6169 74.9355 15.5303C75.0859 15.4437 75.2158 15.3457 75.3252 15.2363C75.4346 15.127 75.5189 15.013 75.5781 14.8945V13.5273H74.5254C74.1699 13.5273 73.8623 13.5615 73.6025 13.6299C73.3428 13.6937 73.1354 13.7871 72.9805 13.9102C72.8438 14.015 72.7412 14.1403 72.6729 14.2861C72.609 14.432 72.5771 14.596 72.5771 14.7783C72.5771 14.9287 72.6045 15.07 72.6592 15.2021C72.7139 15.3298 72.7936 15.4391 72.8984 15.5303C73.0033 15.6214 73.1331 15.6943 73.2881 15.749C73.443 15.7992 73.6253 15.8242 73.835 15.8242ZM79.8848 9.60352H83.8086V15.6465H85.9824V17H79.8848V15.6465H82.1611V10.9639H79.8848V9.60352ZM82.0107 7.68945C82.0107 7.55729 82.0335 7.43652 82.0791 7.32715C82.1247 7.21322 82.1908 7.11523 82.2773 7.0332C82.3594 6.95573 82.4574 6.89648 82.5713 6.85547C82.6898 6.8099 82.8219 6.78711 82.9678 6.78711C83.2139 6.78711 83.4121 6.85091 83.5625 6.97852C83.7174 7.10156 83.8063 7.26107 83.8291 7.45703C83.861 7.65755 83.8268 7.83301 83.7266 7.9834C83.6263 8.12923 83.4805 8.22721 83.2891 8.27734C83.1934 8.36393 83.0794 8.4209 82.9473 8.44824C82.8151 8.47559 82.6693 8.46419 82.5098 8.41406C82.3457 8.36393 82.2204 8.27507 82.1338 8.14746C82.0518 8.0153 82.0107 7.86263 82.0107 7.68945Z" fill="white"/>
</svg>
